<svg xmlns="http://www.w3.org/2000/svg" width="2480" height="2548" viewBox="0 0 2480 2548" version="1.1"><path d="M 1198 125.083 C 945.144 134.143, 703.238 226.839, 508.927 389.130 C 480.897 412.541, 461.377 430.465, 432.921 458.921 C 375.909 515.933, 330.907 570.883, 287.491 636.500 C 132.745 870.376, 70.031 1151.092, 110.106 1430.500 C 139.896 1638.201, 227.806 1835.049, 363.130 1997.073 C 386.541 2025.103, 404.465 2044.623, 432.921 2073.079 C 461.377 2101.535, 480.897 2119.459, 508.927 2142.870 C 757.826 2350.753, 1081.550 2442.214, 1404.500 2395.894 C 1613.598 2365.904, 1812.017 2276.848, 1974.450 2140.087 C 2000.640 2118.036, 2019.793 2100.366, 2047.079 2073.079 C 2075.535 2044.623, 2093.459 2025.103, 2116.870 1997.073 C 2315.864 1758.817, 2408.664 1450.955, 2374.920 1141 C 2350.653 918.099, 2260.966 707.453, 2116.870 534.927 C 2093.459 506.897, 2075.535 487.377, 2047.079 458.921 C 2018.623 430.465, 1999.103 412.541, 1971.073 389.130 C 1754.573 208.307, 1481.202 114.936, 1198 125.083 M 1203.500 245.600 C 1164.304 247.596, 1138.573 249.697, 1112 253.070 C 956.721 272.784, 809.552 327.082, 679.876 412.503 C 619.598 452.210, 571.446 491.507, 519.412 543.457 C 490.721 572.102, 477.024 586.985, 454.954 613.500 C 330.236 763.334, 251.683 944.131, 227.070 1138 C 221.471 1182.104, 219.587 1214.332, 219.587 1266 C 219.587 1340.757, 225.031 1397, 239.079 1467.367 C 274.612 1645.354, 355.842 1807.477, 479.394 1947 C 494.801 1964.399, 541.601 2011.199, 559 2026.606 C 717.531 2166.990, 905.655 2252.825, 1112 2278.922 C 1156.390 2284.537, 1188.460 2286.413, 1240 2286.413 C 1291.540 2286.413, 1323.610 2284.537, 1368 2278.922 C 1523.028 2259.315, 1670.455 2204.914, 1800.228 2119.428 C 1860.864 2079.485, 1909.015 2040.137, 1961.576 1987.576 C 1989.403 1959.749, 2003.314 1944.609, 2025.046 1918.500 C 2149.746 1768.688, 2228.443 1587.553, 2252.922 1394 C 2258.537 1349.610, 2260.413 1317.540, 2260.413 1266 C 2260.413 1214.460, 2258.537 1182.390, 2252.922 1138 C 2233.315 982.972, 2178.914 835.545, 2093.428 705.772 C 2053.485 645.136, 2014.137 596.985, 1961.576 544.424 C 1933.749 516.597, 1918.609 502.686, 1892.500 480.954 C 1762.074 372.391, 1606.860 298.118, 1441.367 265.079 C 1394.910 255.804, 1354.266 250.462, 1303.500 246.957 C 1288.386 245.914, 1216.501 244.939, 1203.500 245.600 M 786 780.052 L 786 967.103 677.400 839.802 C 617.671 769.786, 567.946 711.612, 566.900 710.528 C 565.033 708.590, 565 717.881, 565 1244.278 L 565 1780 626.499 1780 L 687.997 1780 688.249 1412.582 L 688.500 1045.164 964 1371.044 C 1115.525 1550.278, 1239.782 1696.829, 1240.128 1696.712 C 1240.473 1696.595, 1364.673 1549.908, 1516.128 1370.739 L 1791.500 1044.978 1791.751 1412.489 L 1792.003 1780 1853.533 1780 C 1901.837 1780, 1915.165 1779.731, 1915.537 1778.750 C 1915.798 1778.063, 1915.896 1539.467, 1915.756 1248.539 L 1915.500 719.577 1804.500 842.367 L 1693.500 965.157 1693.247 784.496 C 1693.107 684.405, 1692.612 603.983, 1692.136 604.168 C 1691.664 604.350, 1592.138 722.850, 1470.968 867.500 C 1349.799 1012.150, 1248.317 1133.272, 1245.454 1136.660 L 1240.249 1142.820 1013.875 867.910 C 889.369 716.710, 787.163 593, 786.750 593 C 786.338 593, 786 677.173, 786 780.052 M 918.045 1040.550 L 918.091 1119.500 1078.795 1304.946 C 1167.183 1406.941, 1239.819 1490.416, 1240.208 1490.446 C 1240.598 1490.476, 1313.142 1407.475, 1401.418 1306 L 1561.920 1121.500 1561.960 1041.528 C 1561.999 962.828, 1561.970 961.587, 1560.093 963.528 C 1559.044 964.612, 1486.752 1051.900, 1399.444 1157.500 C 1312.136 1263.100, 1240.327 1349.500, 1239.868 1349.500 C 1239.409 1349.500, 1167.215 1262.650, 1079.438 1156.500 C 991.660 1050.350, 919.428 963.072, 918.921 962.550 C 918.359 961.971, 918.018 992.411, 918.045 1040.550 M 787.656 1238.699 C 787.303 1242.440, 787.011 1365.763, 787.007 1512.750 L 787 1780 852.500 1780 L 918 1780 918 1580.537 L 918 1381.074 853.853 1307.287 C 818.572 1266.704, 789.389 1233.140, 789.002 1232.699 C 788.615 1232.259, 788.010 1234.959, 787.656 1238.699 M 1626.812 1306.297 L 1562.124 1380.500 1562.062 1580.257 L 1562 1780.014 1627.250 1779.757 L 1692.500 1779.500 1692.729 1674.500 C 1692.855 1616.750, 1692.630 1493.583, 1692.229 1400.797 L 1691.500 1232.093 1626.812 1306.297" stroke="none" fill="#00c3ff" fill-rule="evenodd"/><path d="M 1198 125.083 C 945.144 134.143, 703.238 226.839, 508.927 389.130 C 480.897 412.541, 461.377 430.465, 432.921 458.921 C 375.909 515.933, 330.907 570.883, 287.491 636.500 C 132.745 870.376, 70.031 1151.092, 110.106 1430.500 C 139.896 1638.201, 227.806 1835.049, 363.130 1997.073 C 386.541 2025.103, 404.465 2044.623, 432.921 2073.079 C 461.377 2101.535, 480.897 2119.459, 508.927 2142.870 C 757.826 2350.753, 1081.550 2442.214, 1404.500 2395.894 C 1613.598 2365.904, 1812.017 2276.848, 1974.450 2140.087 C 2000.640 2118.036, 2019.793 2100.366, 2047.079 2073.079 C 2075.535 2044.623, 2093.459 2025.103, 2116.870 1997.073 C 2315.864 1758.817, 2408.664 1450.955, 2374.920 1141 C 2350.653 918.099, 2260.966 707.453, 2116.870 534.927 C 2093.459 506.897, 2075.535 487.377, 2047.079 458.921 C 2018.623 430.465, 1999.103 412.541, 1971.073 389.130 C 1754.573 208.307, 1481.202 114.936, 1198 125.083 M 1203.500 245.600 C 1164.304 247.596, 1138.573 249.697, 1112 253.070 C 956.721 272.784, 809.552 327.082, 679.876 412.503 C 619.598 452.210, 571.446 491.507, 519.412 543.457 C 490.721 572.102, 477.024 586.985, 454.954 613.500 C 330.236 763.334, 251.683 944.131, 227.070 1138 C 221.471 1182.104, 219.587 1214.332, 219.587 1266 C 219.587 1340.757, 225.031 1397, 239.079 1467.367 C 274.612 1645.354, 355.842 1807.477, 479.394 1947 C 494.801 1964.399, 541.601 2011.199, 559 2026.606 C 717.531 2166.990, 905.655 2252.825, 1112 2278.922 C 1156.390 2284.537, 1188.460 2286.413, 1240 2286.413 C 1291.540 2286.413, 1323.610 2284.537, 1368 2278.922 C 1523.028 2259.315, 1670.455 2204.914, 1800.228 2119.428 C 1860.864 2079.485, 1909.015 2040.137, 1961.576 1987.576 C 1989.403 1959.749, 2003.314 1944.609, 2025.046 1918.500 C 2149.746 1768.688, 2228.443 1587.553, 2252.922 1394 C 2258.537 1349.610, 2260.413 1317.540, 2260.413 1266 C 2260.413 1214.460, 2258.537 1182.390, 2252.922 1138 C 2233.315 982.972, 2178.914 835.545, 2093.428 705.772 C 2053.485 645.136, 2014.137 596.985, 1961.576 544.424 C 1933.749 516.597, 1918.609 502.686, 1892.500 480.954 C 1762.074 372.391, 1606.860 298.118, 1441.367 265.079 C 1394.910 255.804, 1354.266 250.462, 1303.500 246.957 C 1288.386 245.914, 1216.501 244.939, 1203.500 245.600 M 786 780.052 L 786 967.103 677.400 839.802 C 617.671 769.786, 567.946 711.612, 566.900 710.528 C 565.033 708.590, 565 717.881, 565 1244.278 L 565 1780 626.499 1780 L 687.997 1780 688.249 1412.582 L 688.500 1045.164 964 1371.044 C 1115.525 1550.278, 1239.782 1696.829, 1240.128 1696.712 C 1240.473 1696.595, 1364.673 1549.908, 1516.128 1370.739 L 1791.500 1044.978 1791.751 1412.489 L 1792.003 1780 1853.533 1780 C 1901.837 1780, 1915.165 1779.731, 1915.537 1778.750 C 1915.798 1778.063, 1915.896 1539.467, 1915.756 1248.539 L 1915.500 719.577 1804.500 842.367 L 1693.500 965.157 1693.247 784.496 C 1693.107 684.405, 1692.612 603.983, 1692.136 604.168 C 1691.664 604.350, 1592.138 722.850, 1470.968 867.500 C 1349.799 1012.150, 1248.317 1133.272, 1245.454 1136.660 L 1240.249 1142.820 1013.875 867.910 C 889.369 716.710, 787.163 593, 786.750 593 C 786.338 593, 786 677.173, 786 780.052 M 918.045 1040.550 L 918.091 1119.500 1078.795 1304.946 C 1167.183 1406.941, 1239.819 1490.416, 1240.208 1490.446 C 1240.598 1490.476, 1313.142 1407.475, 1401.418 1306 L 1561.920 1121.500 1561.960 1041.528 C 1561.999 962.828, 1561.970 961.587, 1560.093 963.528 C 1559.044 964.612, 1486.752 1051.900, 1399.444 1157.500 C 1312.136 1263.100, 1240.327 1349.500, 1239.868 1349.500 C 1239.409 1349.500, 1167.215 1262.650, 1079.438 1156.500 C 991.660 1050.350, 919.428 963.072, 918.921 962.550 C 918.359 961.971, 918.018 992.411, 918.045 1040.550 M 787.656 1238.699 C 787.303 1242.440, 787.011 1365.763, 787.007 1512.750 L 787 1780 852.500 1780 L 918 1780 918 1580.537 L 918 1381.074 853.853 1307.287 C 818.572 1266.704, 789.389 1233.140, 789.002 1232.699 C 788.615 1232.259, 788.010 1234.959, 787.656 1238.699 M 1626.812 1306.297 L 1562.124 1380.500 1562.062 1580.257 L 1562 1780.014 1627.250 1779.757 L 1692.500 1779.500 1692.729 1674.500 C 1692.855 1616.750, 1692.630 1493.583, 1692.229 1400.797 L 1691.500 1232.093 1626.812 1306.297" stroke="none" fill="#00c3ff" fill-rule="evenodd"/><path d="" stroke="none" fill="#08c4fc" fill-rule="evenodd"/><path d="" stroke="none" fill="#04c4fc" fill-rule="evenodd"/></svg>